<svg version="1.0" xmlns="http://www.w3.org/2000/svg"
 width="146.000000pt" height="142.000000pt" viewBox="0 0 146.000000 142.000000"
 preserveAspectRatio="xMidYMid meet">

<g transform="translate(0.000000,142.000000) scale(0.100000,-0.100000)"
fill="#000000" stroke="none">
<path d="M795 1071 c-59 -25 -77 -100 -40 -171 20 -40 150 -170 169 -170 21 0
135 109 160 153 33 58 40 98 23 139 -16 39 -63 64 -101 54 -13 -3 -37 -19 -52
-36 l-28 -29 -26 29 c-27 32 -72 45 -105 31z m35 -40 c0 -11 -5 -23 -11 -27
-6 -3 -19 -20 -29 -37 l-19 -31 -11 28 c-13 35 -13 37 6 64 20 28 64 30 64 3z
m190 -1 c0 -22 -34 -44 -56 -36 -11 4 -12 10 -2 31 14 31 58 36 58 5z"/>
<path d="M427 785 c-41 -21 -54 -38 -66 -82 -14 -50 -6 -95 27 -153 29 -50
163 -187 204 -209 25 -13 30 -11 66 17 62 50 166 164 187 207 13 27 20 61 20
102 0 51 -4 66 -24 87 -30 32 -89 51 -127 42 -16 -4 -46 -26 -67 -48 -21 -22
-39 -39 -41 -37 -1 2 -10 17 -20 32 -31 50 -106 70 -159 42z m297 -21 c9 -3
16 -17 16 -30 0 -29 -63 -65 -81 -47 -12 12 4 50 30 70 19 15 16 14 35 7z
m-246 -16 c17 -17 16 -21 -23 -61 -19 -20 -35 -43 -35 -52 0 -25 -20 -17 -31
12 -26 68 44 146 89 101z"/>
</g>
</svg>
